<?xml version="1.0" encoding="utf-8"?>
<!-- Generator: Adobe Illustrator 26.4.1, SVG Export Plug-In . SVG Version: 6.00 Build 0)  -->
<svg version="1.1" id="Camada_1" xmlns="http://www.w3.org/2000/svg" xmlns:xlink="http://www.w3.org/1999/xlink" x="0px" y="0px"
	 viewBox="0 0 1124 1676" style="enable-background:new 0 0 1124 1676;" xml:space="preserve">
<style type="text/css">
	.st0{clip-path:url(#SVGID_00000054984343345798657770000016458247425850859689_);}
	.st1{fill:#1D1D1B;}
</style>
<g>
	<defs>
		<rect id="SVGID_1_" x="53" y="77.74" width="1011.37" height="1477.26"/>
	</defs>
	<clipPath id="SVGID_00000152947466733787529410000004136081776035668871_">
		<use xlink:href="#SVGID_1_"  style="overflow:visible;"/>
	</clipPath>
	<g style="clip-path:url(#SVGID_00000152947466733787529410000004136081776035668871_);">
		<path class="st1" d="M604.71,800.55c-8.16,0-16.48-1.13-24.54-3.5c-13.44-3.97-55.89-30.8-81.16-73.64
			c-3.52-5.96-13.16-32.04-16.31-43.06c-12.72,22.75-28.33,39.7-49.51,53.99c-10.92,7.36-44.32,24.12-49.99,26.77
			c-14.52,6.79-30.97,14.47-51.15,14.47c-0.13,0-0.25,0-0.38,0c-29.36-0.14-45.98-13.45-59.57-27.8
			c-9.64-10.17-20.28-52.59-20.13-65.17c0.23-17.45,1.6-34.91,2.93-51.79c0.66-8.44,1.35-17.16,1.88-25.75
			c0.27-4.43,1.78-14.79,3.73-25.85c-6.2-0.32-12.35-0.68-18.43-1.04c-10.23-0.6-20.81-1.22-31.27-1.63
			c-7.6-0.3-34.67-3.64-41.33-4.97l-1.94-0.39c-11.34-2.25-20.29-4.03-31.39-8.87c-2.29-1-56.21-24.71-69.42-48.18
			c-5.19-9.22-14.81-26.31-13.65-71.61c0.29-11.34,6.73-22.64,17.66-31c10.81-8.26,28.47-13.01,42.66-16.82l4.94-1.34
			c13.63-3.74,26.23-6.62,38.05-8.71c-0.4-0.42-0.77-0.83-1.1-1.22c-7.08-8.35-37.98-47.6-42.65-58.97
			c-1.9-4.64-4.5-16.93-3.38-30.14c1.5-17.61,8.98-31.34,21.64-39.71c14.1-9.33,26.93-13.98,39.23-14.21
			c7.1-0.13,14.38,0.27,22.26,1.24c4.41,0.54,19.37,2.84,34.1,5.74c-2.68-17.14-3.35-34.72-1.23-51.23
			c3.83-29.74,16.36-52.15,36.23-64.79c17.51-11.14,39.18-13.2,64.42-6.13c16.54,4.65,26.69,12.02,38.44,20.56l0.5,0.37
			c15.23,11.06,29.93,22.41,42.33,39.58c3.78,5.5,42.69,69.23,50.18,84.32c4.88,9.86,11.46,30.93,12.31,42.32l-13.69,1.02
			c-0.7-9.46-6.69-28.71-10.92-37.24c-6.87-13.87-45.18-76.81-49.09-82.51c-10.12-14-21.59-23.6-39.18-36.38l-0.5-0.37
			c-11.12-8.08-19.91-14.47-34.07-18.45c-21.62-6.06-39.06-4.6-53.34,4.49c-20.62,13.12-27.68,37.13-29.98,54.96
			c-2.17,16.79-1.12,35.01,2.09,52.57c6.9,1.64,12.76,3.32,16.09,4.9l1.92,0.9c9.36,4.39,37.83,17.77,48.15,25.09l4.22,2.98
			c7.36,5.18,17.44,12.28,23.1,17.03c0.69,0.58,1.69,1.39,2.91,2.38c31.07,25.26,43.45,40.09,42.73,51.19
			c-0.55,8.33-6.34,22.1-39.24,21.63c-37.04-0.66-66.19-27.85-77-39.51c-14.27-15.38-27.54-43.73-34.59-75.12
			c-14.46-3.01-31.49-5.81-38.56-6.68c-7.23-0.89-13.88-1.26-20.32-1.15c-9.62,0.18-20.06,4.08-31.92,11.93
			c-22.37,14.79-15.02,48.6-13.14,53.19c3.37,8.21,30.73,43.87,40.42,55.3c1.68,1.98,4.67,4.54,8.59,7.48
			c1.58-0.18,3.14-0.34,4.69-0.49c7.99-0.76,14.14,0.03,20.66,0.86c2.07,0.27,4.21,0.54,6.53,0.78
			c26.86,2.74,53.93,8.24,82.76,16.83c26.59,7.91,45.61,22.67,48.46,37.59c1.4,7.32-1.2,14-7.32,18.83
			c-22.13,17.43-47.88,2.98-64.92-6.58c-4.1-2.3-7.96-4.47-10.92-5.7c-11.38-4.76-57.65-29.5-83.59-47.83
			c-14.75,1.97-30.8,5.36-48.75,10.29l-5.02,1.36c-13.02,3.5-29.23,7.85-37.88,14.46c-7.62,5.83-12.09,13.28-12.28,20.45
			c-1.07,41.5,7.34,56.45,11.86,64.48c8.11,14.41,42.92,33.63,62.97,42.37c9.74,4.25,17.64,5.81,28.58,7.99l1.95,0.39
			c5.93,1.18,32.33,4.44,39.17,4.71c10.6,0.41,21.25,1.04,31.55,1.64c6.66,0.39,13.41,0.79,20.2,1.13
			c1.8-8.83,3.68-16.68,5.21-20.62c0.51-1.31,1-2.63,1.49-3.94c4.02-10.71,8.57-22.86,20.48-31.71
			c13.86-10.31,39.18-15.33,48.71-17.22l0.34-0.07c20.23-4.01,36.14,2.06,44.76,17.09c5.5,9.59,3.58,21.29-5.42,32.95
			c-6.33,8.19-16.09,16.4-26.77,22.52c-17.64,10.09-38.98,15.87-58.26,15.69c-6.44-0.04-12.87-0.2-19.27-0.44
			c-1.98,10.95-3.6,21.6-3.87,26.07c-0.54,8.71-1.23,17.49-1.9,25.99c-1.31,16.66-2.67,33.89-2.88,50.89
			c-0.14,11.29,10.4,49.26,16.36,55.56c13.66,14.44,26.74,23.4,49.66,23.52c0.1,0,0.21,0,0.31,0c17.13,0,31.46-6.7,45.33-13.18
			c6.75-3.15,38.42-19.17,48.13-25.71c22.32-15.06,37.9-33.41,50.51-59.51c0.35-0.72,1-2.16,1.88-4.17
			c-6.03-28.04-15.98-77.79-15.83-96.71c0.01-0.97,0-2.07,0-3.28c-0.06-16.38-0.18-54.74,27.34-55.91
			c19.26-0.83,26.92,16.42,31.03,25.68l0.59,1.33c6.78,15.13,7.97,26.43,4.54,43.18c-3.17,15.45-24.2,66.09-33.33,87.16
			c1.33,6.09,2.43,10.97,3.16,14.01c2.08,8.71,12.83,37.31,15.43,41.71c23,38.98,61.7,64.04,73.22,67.45
			c25.9,7.64,55.77-0.13,66.58-17.32c7.08-11.25,13.54-23.76,19.21-37.19c5.17-12.24,17.35-51.25,22.05-93.71
			c0.96-8.7,1.67-18.15,1.86-27.92c-11.12-8.87-22.12-18.46-25.62-22.78c-1.92-2.06-5.39-5.67-9.58-10.04
			c-12.5-13.02-29.61-30.86-35-37.77c-0.9-1.15-1.92-2.4-3-3.72c-8.1-9.87-23.17-28.24-7.99-41.28c6.48-5.56,14.42-8,23.61-7.22
			c19.52,1.64,38.9,17.62,44.74,24.65c17.65,21.25,26.59,51.95,26.69,91.55c6.84,5.31,13.18,9.9,16.81,11.92
			c9.09,5.08,19.44,12.67,22.4,14.87c17.71,13.2,76.12,54.96,89.89,61.86c9.9,4.96,20.62,7.7,31.97,10.6
			c4.49,1.15,9.13,2.33,13.81,3.68l3.74,1.08c11.84,3.45,23.03,6.71,35.12,6.91c15.23,0.25,20.37-0.04,26.91-7.75
			c10-11.78,10.94-35.07,8.43-47.1c-4.5-21.58-16.16-42.84-26.44-61.6c-1.28-2.33-2.53-4.62-3.75-6.87
			c-7.44-13.73-33.11-55.16-49.21-79.18c-5.43-0.31-10.85-0.68-16.25-1.13l-7.16-0.59c-29.69-2.42-63.34-5.16-87.56-20.6
			c-3.02-1.92-6.32-3.83-9.82-5.85c-6.55-3.78-13.32-7.69-18.83-12.1c-7.27-5.83-11-12.64-11.76-21.43
			c-0.5-5.81,1.64-10.96,6.18-14.9c10.16-8.81,30.13-8.9,36.38-7.45c8.8,2.05,14.6,4.35,20.75,6.78c2.68,1.06,5.49,2.18,8.74,3.34
			c38.65,13.83,70.66,39.41,79.21,50.03c1.86,2.31,4.49,5.97,7.64,10.54c16.28,0.76,32.64,0.99,48.63,1.22l6.7,0.1
			c0.07,0,0.14,0,0.2,0c12.33,0,75.01-15.32,91.11-30.04c15.25-13.94,18.69-31.41,19.17-53.34c0.32-14.65-2.12-21.19-3.6-23.78
			l-0.25-0.48c-6.24-13.3-36.23-50.08-45.58-58.89c-12.47-11.13-32.29-19.82-46.1-25.38c-10.77-4.33-23.23-6.72-35.28-9.04
			c-4.77-0.92-9.53-1.83-14.21-2.86c-8.22-1.8-16.76-3.1-25.25-4.07c-2.6,2.15-5.18,4.31-7.71,6.44
			c-17.46,14.67-35.52,29.84-60.86,38.95c-13.79,4.95-39.03,4.43-48.61-9.49c-6.98-10.15-3.64-26.09,3.72-34.05
			c17.11-18.5,48.88-19.62,80.68-18.08c8.96,0.43,18.64,1.01,28.53,1.98c1.24-1,2.49-1.99,3.74-2.97
			c26.67-20.82,40.14-50.43,46.74-71.59c5.88-18.84,2.5-35.27-4.86-55.68c-4.86-13.48-11.2-23.62-21.19-33.88
			c-10.41-10.7-17.84-15.61-36.91-18.32c-8.5-1.21-19.54-2.36-29.5-0.51c-13.55,2.53-27.55,8.78-40.49,18.09
			c-26.93,19.37-94.77,99.8-101.67,111.37l-3.22,5.37c-8.87,14.78-17.24,28.73-22.7,43.73c-4.75,13.06-12.75,39.83-12.83,40.09
			l-13.15-3.93c0.33-1.11,8.19-27.42,13.08-40.86c5.9-16.24,15.02-31.42,23.83-46.1l3.2-5.34c8.09-13.56,76.41-94.6,105.45-115.49
			c14.57-10.47,30.47-17.54,45.99-20.44c11.92-2.22,24.41-0.95,33.95,0.41c20.28,2.89,31.17,8.31,44.81,22.34
			c11.29,11.59,18.77,23.56,24.27,38.8c8.09,22.45,12.05,42,5.05,64.43c-9.31,29.86-24.73,54.86-44.83,72.83
			c4.6,0.73,9.17,1.57,13.67,2.56c4.57,1,9.21,1.89,13.86,2.78c12.69,2.44,25.82,4.95,37.82,9.78c23.47,9.45,39.44,18.35,50.26,28
			c10.52,9.92,41.33,47.71,48.61,62.94c3.78,6.8,5.55,17.11,5.26,30.64c-0.48,22.03-3.67,44.93-23.63,63.17
			c-19.37,17.71-85.82,33.64-100.51,33.64c-0.1,0-0.19,0-0.28,0l-6.69-0.1c-12.82-0.18-25.88-0.37-38.99-0.82
			c16.21,24.74,37.42,59.14,44.32,71.88c1.21,2.23,2.45,4.5,3.72,6.81c10.74,19.6,22.91,41.82,27.84,65.39
			c2.94,14.07,2.44,42.48-11.4,58.79c-11.04,13.02-22.75,12.83-37.6,12.59c-13.94-0.23-26.55-3.9-38.74-7.46l-3.7-1.07
			c-4.47-1.29-9.01-2.45-13.4-3.57c-11.55-2.95-23.5-6-34.73-11.63c-15.19-7.61-75.66-51-91.94-63.13
			c-2.79-2.08-12.54-9.22-20.9-13.9c-2.6-1.45-6.31-3.96-10.56-7.06c-0.34,6.2-0.88,12.59-1.61,19.18
			c-5.26,47.49-18.74,87.32-23.05,97.53c-5.95,14.1-12.76,27.28-20.23,39.15C651.72,790.63,628.9,800.55,604.71,800.55z
			 M490.66,517.07c-0.22,0-0.44,0-0.66,0.01c-14.33,0.61-14.24,29.72-14.2,42.15c0,1.27,0.01,2.42,0,3.43
			c-0.1,13.4,5.95,46.98,11.51,74.5c9.81-23.52,22.61-55.61,24.82-66.36c2.84-13.89,1.96-22.35-3.62-34.82l-0.61-1.37
			C503.5,524.69,499.41,517.07,490.66,517.07z M632.93,498.54c-4.51,0-8.26,1.33-11.42,4.04c-4.18,3.59,0.38,10.84,9.66,22.15
			c1.16,1.42,2.26,2.75,3.22,3.99c4.96,6.36,22.48,24.62,34.08,36.71c4.39,4.57,8,8.33,9.9,10.38l0.41,0.48
			c1.7,2.2,7.58,7.5,14.69,13.46c-1.41-26.15-7.51-52.59-23.12-71.38c-4.41-5.31-20.84-18.52-35.33-19.74
			C634.31,498.57,633.61,498.54,632.93,498.54z M277,566.18c5.56,0.19,11.14,0.32,16.71,0.36c16.89,0.1,35.75-4.95,51.35-13.88
			c9.04-5.18,17.54-12.28,22.73-19c5.54-7.17,7.01-13.13,4.38-17.72c-5.62-9.79-15.77-13.3-30.18-10.45l-0.34,0.07
			c-7.87,1.56-31.8,6.31-43.18,14.77c-8.66,6.44-11.98,15.28-15.81,25.51c-0.51,1.36-1.02,2.72-1.54,4.07
			C280.01,552.77,278.52,558.92,277,566.18z M760.6,438.51c-6.22,0-15.51,1.36-19.53,4.85c-1.37,1.19-1.59,2.2-1.49,3.35
			c0.36,4.22,1.63,7.85,6.67,11.89c4.69,3.76,11,7.4,17.11,10.92c3.48,2.01,7.07,4.08,10.34,6.17
			c21.35,13.61,53.19,16.2,81.29,18.49l7.2,0.59c1.65,0.14,3.31,0.27,4.96,0.4c-0.24-0.31-0.47-0.6-0.69-0.87
			c-7.93-9.85-39.15-33.55-73.14-45.72c-3.41-1.22-6.36-2.39-9.18-3.51c-5.9-2.34-10.99-4.36-18.79-6.17
			C764.26,438.65,762.59,438.51,760.6,438.51z M194.58,395.6c23.6,14.76,54.13,31.32,65.05,35.88c3.69,1.54,7.89,3.9,12.34,6.4
			c19.03,10.68,35.91,18.63,49.7,7.77c2.59-2.04,2.63-3.91,2.33-5.47c-1.52-7.94-15.67-20.1-38.9-27.01
			c-28-8.33-54.25-13.68-80.24-16.33c-2.44-0.25-4.7-0.54-6.87-0.81C196.81,395.88,195.68,395.73,194.58,395.6z M244.29,265.47
			c6.75,26.32,17.94,49.64,29.67,62.29c7.5,8.09,34.52,34.54,67.18,35.12c5.77,0.1,24.73-0.23,25.29-8.8
			c0.13-2-2.2-10.79-37.69-39.63c-1.29-1.05-2.34-1.9-3.07-2.52c-5.23-4.38-15.03-11.29-22.19-16.33l-4.26-3.01
			c-6.19-4.39-21.68-12.42-46.04-23.86l-1.97-0.93C249.71,267.09,247.31,266.3,244.29,265.47z M829.29,286.59
			c-18.42,0-41.26,2.24-52.33,14.22c-3.87,4.18-5.17,13.05-2.48,16.95c4.57,6.64,22.26,8.08,32.65,4.35
			c21.78-7.84,37.58-20.54,53.87-34.19c-4.84-0.33-9.56-0.58-14.1-0.81C842.14,286.89,836.01,286.59,829.29,286.59z"/>
	</g>
	<g style="clip-path:url(#SVGID_00000152947466733787529410000004136081776035668871_);">
		<path class="st1" d="M431.19,475.82c-19.16,0-40-0.73-58.51-8c-22.49-8.82-26.89-20.78-26.7-37.2
			c0.12-10.73,1.57-26.51,12.71-39.68c21.02-24.85,67.4-44.46,81.12-49.89c30.86-12.2,58.72-18.75,85.16-20.03
			c14.19-0.68,28.63-0.51,42.59-0.34c5.88,0.07,11.74,0.14,17.59,0.15c16.04,0.03,32.07,0.02,48.1,0l24.51-0.01l0-0.05
			c31.23-0.99,65.03,26.59,69.77,49.08c4.27,20.25-4.11,36.6-24.9,48.62c-15.59,9.01-31.73,15.3-52.32,20.4
			c-3.88,0.96-7.85,1.98-11.88,3.01c-13.78,3.53-28.03,7.17-41.73,9.39c-9.41,1.52-19.1,2.85-28.46,4.14
			c-17.54,2.41-35.69,4.91-52.73,8.74c-4.78,1.07-9.16,2.18-13.41,3.24c-10.37,2.6-20.16,5.07-32.84,6.44
			c-9.04,0.98-19.03,1.9-30.81,1.96C436.08,475.8,433.65,475.82,431.19,475.82z M548.48,334.26c-7.65,0-15.32,0.11-22.85,0.48
			c-24.92,1.21-51.34,7.45-80.78,19.09c-12.96,5.12-56.73,23.58-75.68,45.98c-6.3,7.45-9.31,17.29-9.46,30.97
			c-0.12,10.66,1.03,17.61,17.99,24.27c18.43,7.23,39.92,7.13,60.7,7.02c10.53-0.05,19.37-0.79,29.39-1.88
			c11.74-1.27,20.65-3.51,30.97-6.11c4.35-1.09,8.84-2.22,13.74-3.32c17.61-3.96,36.04-6.5,53.87-8.95
			c9.29-1.28,18.89-2.6,28.15-4.09c13.09-2.11,27.03-5.68,40.52-9.13c4.06-1.04,8.07-2.06,11.99-3.03
			c19.55-4.83,34.13-10.5,48.75-18.95c15.49-8.96,21.32-19.73,18.33-33.9c-3.17-15.07-29.18-38.21-54.53-38.21
			c-0.18,0-0.36,0-0.54,0v0.08l-25.77,0.01c-16.05,0.01-32.09,0.02-48.13-0.01c-5.89-0.01-11.81-0.08-17.73-0.15
			C561.16,334.34,554.83,334.26,548.48,334.26z"/>
	</g>
	<g style="clip-path:url(#SVGID_00000152947466733787529410000004136081776035668871_);">
		<path class="st1" d="M271.65,1555c-7.18,0-14.05-0.79-19.84-1.62c-20.28-2.89-31.17-8.31-44.81-22.34
			c-11.29-11.6-18.77-23.56-24.27-38.8c-8.09-22.45-12.05-42-5.05-64.43c9.31-29.86,24.73-54.86,44.83-72.84
			c-4.6-0.73-9.17-1.57-13.67-2.55c-4.57-1-9.21-1.89-13.86-2.78c-12.7-2.44-25.83-4.96-37.83-9.79
			c-23.47-9.44-39.44-18.34-50.26-28c-10.52-9.91-41.33-47.71-48.61-62.94c-3.78-6.81-5.55-17.11-5.26-30.64
			c0.48-22.03,3.67-44.93,23.63-63.18c19.37-17.7,85.82-33.64,100.51-33.64c0.1,0,0.19,0,0.28,0l6.64,0.1
			c12.84,0.18,25.91,0.37,39.04,0.83c-16.21-24.74-37.42-59.15-44.32-71.88c-1.21-2.23-2.46-4.51-3.72-6.82
			c-10.74-19.6-22.91-41.82-27.83-65.39c-2.94-14.07-2.44-42.48,11.4-58.79c11.05-13.02,22.77-12.83,37.6-12.59
			c13.94,0.23,26.55,3.9,38.74,7.46l3.7,1.07c4.47,1.29,9.01,2.45,13.4,3.57c11.55,2.95,23.5,6,34.73,11.62
			c15.17,7.61,75.66,51,91.94,63.13c2.79,2.07,12.53,9.21,20.9,13.9c2.6,1.45,6.31,3.96,10.56,7.06c0.34-6.2,0.88-12.6,1.61-19.18
			c5.26-47.5,18.74-87.32,23.05-97.53c5.95-14.11,12.76-27.28,20.23-39.15c14.09-22.42,50.15-32.6,82.09-23.18
			c13.44,3.97,55.88,30.79,81.16,73.64c3.52,5.97,13.16,32.04,16.31,43.06c12.72-22.75,28.33-39.69,49.51-53.99
			c10.88-7.34,44.31-24.11,49.99-26.77c14.61-6.83,31.28-14.6,51.53-14.47c29.36,0.15,45.98,13.44,59.57,27.8
			c9.64,10.18,20.29,52.6,20.13,65.18c-0.23,17.44-1.6,34.89-2.92,51.76c-0.66,8.44-1.35,17.18-1.88,25.77
			c-0.27,4.43-1.78,14.79-3.74,25.85c6.19,0.32,12.32,0.68,18.38,1.04c10.25,0.6,20.84,1.22,31.32,1.63
			c7.6,0.3,34.67,3.64,41.33,4.97l1.93,0.38c11.34,2.25,20.3,4.03,31.4,8.87c2.29,1,56.22,24.73,69.42,48.18
			c5.19,9.22,14.81,26.31,13.65,71.61c-0.29,11.34-6.73,22.64-17.66,31c-10.81,8.27-28.47,13.01-42.67,16.82l-4.93,1.33
			c-13.63,3.74-26.23,6.63-38.05,8.71c0.4,0.42,0.77,0.83,1.1,1.22c7.08,8.35,37.98,47.6,42.65,58.97c1.9,4.64,4.5,16.92,3.38,30.14
			c-1.5,17.61-8.98,31.34-21.64,39.71c-14.1,9.33-26.93,13.98-39.23,14.21c-7.08,0.13-14.37-0.27-22.26-1.25
			c-4.41-0.54-19.37-2.84-34.1-5.74c2.68,17.14,3.35,34.72,1.23,51.23c-3.83,29.74-16.36,52.14-36.23,64.78
			c-17.51,11.15-39.18,13.21-64.42,6.12c-16.54-4.64-26.69-12.02-38.44-20.56l-0.5-0.36c-15.23-11.06-29.93-22.41-42.33-39.57
			c-3.79-5.51-42.7-69.25-50.17-84.32c-4.88-9.86-11.46-30.93-12.31-42.32l13.69-1.02c0.7,9.46,6.69,28.71,10.92,37.24
			c6.86,13.84,45.17,76.8,49.1,82.51c10.12,14,21.59,23.6,39.18,36.37l0.5,0.36c11.12,8.09,19.91,14.48,34.08,18.45
			c21.61,6.06,39.06,4.6,53.34-4.49c20.62-13.12,27.68-37.13,29.98-54.96c2.17-16.8,1.12-35.01-2.09-52.57
			c-6.9-1.63-12.76-3.32-16.09-4.9l-1.92-0.9c-9.36-4.4-37.83-17.77-48.16-25.09l-4.18-2.95c-7.37-5.19-17.46-12.3-23.14-17.06
			c-0.69-0.58-1.68-1.39-2.9-2.38c-31.08-25.26-43.46-40.09-42.73-51.19c0.55-8.33,6.32-22.29,39.24-21.64
			c37.04,0.66,66.19,27.85,77,39.51c14.27,15.38,27.54,43.73,34.59,75.12c14.45,3,31.49,5.81,38.56,6.69
			c7.24,0.89,13.89,1.27,20.32,1.14c9.62-0.18,20.06-4.08,31.92-11.93c22.37-14.79,15.02-48.6,13.14-53.19
			c-3.37-8.21-30.73-43.87-40.42-55.3c-1.68-1.98-4.67-4.54-8.6-7.48c-1.58,0.18-3.14,0.34-4.69,0.49
			c-7.98,0.76-14.14-0.03-20.65-0.86c-2.07-0.27-4.22-0.54-6.53-0.77c-26.86-2.74-53.93-8.24-82.77-16.83
			c-26.59-7.91-45.61-22.67-48.46-37.59c-1.4-7.31,1.2-14,7.32-18.83c22.12-17.44,47.87-2.99,64.92,6.57
			c4.1,2.3,7.96,4.47,10.92,5.7c11.38,4.76,57.65,29.49,83.58,47.83c14.75-1.97,30.8-5.36,48.75-10.29l5-1.35
			c13.03-3.5,29.24-7.85,37.89-14.47c7.62-5.83,12.09-13.28,12.28-20.45c1.07-41.51-7.34-56.45-11.86-64.48
			c-8.11-14.4-42.92-33.63-62.97-42.37c-9.74-4.24-17.65-5.81-28.59-7.99l-1.94-0.39c-5.93-1.18-32.32-4.44-39.17-4.71
			c-10.62-0.41-21.28-1.03-31.59-1.64c-6.64-0.39-13.38-0.78-20.16-1.12c-1.8,8.83-3.68,16.68-5.2,20.62
			c-0.51,1.31-1,2.63-1.49,3.94c-4.02,10.71-8.57,22.86-20.48,31.71c-13.87,10.31-39.18,15.33-48.71,17.22l-0.33,0.06
			c-20.24,4-36.13-2.06-44.76-17.08c-5.5-9.6-3.58-21.3,5.42-32.95c6.33-8.19,16.09-16.4,26.77-22.52
			c17.46-9.99,38.45-15.7,57.68-15.7c0.19,0,0.39,0,0.58,0c6.44,0.04,12.87,0.2,19.27,0.44c1.98-10.95,3.6-21.6,3.87-26.07
			c0.54-8.72,1.23-17.51,1.9-26.01c1.31-16.66,2.66-33.88,2.88-50.87c0.15-11.29-10.4-49.26-16.36-55.56
			c-13.66-14.43-26.74-23.4-49.66-23.51c-17.4-0.02-31.7,6.66-45.65,13.18c-6.75,3.16-38.45,19.19-48.12,25.71
			c-22.32,15.06-37.9,33.41-50.51,59.5c-0.35,0.72-1,2.16-1.88,4.18c6.03,28.03,15.98,77.79,15.83,96.7c-0.01,0.97,0,2.07,0,3.28
			c0.06,16.38,0.18,54.74-27.34,55.91c-19.28,0.81-26.92-16.42-31.03-25.68l-0.59-1.32c-6.79-15.13-7.97-26.43-4.54-43.18
			c3.16-15.44,24.2-66.09,33.33-87.16c-1.33-6.09-2.43-10.97-3.16-14.01c-2.08-8.71-12.83-37.3-15.43-41.7
			c-23-38.99-61.7-64.05-73.22-67.45c-25.9-7.63-55.77,0.13-66.58,17.32c-7.08,11.25-13.54,23.76-19.21,37.19
			c-5.17,12.24-17.35,51.24-22.05,93.7c-0.96,8.7-1.67,18.15-1.86,27.92c11.12,8.87,22.12,18.45,25.61,22.78
			c1.93,2.06,5.4,5.68,9.6,10.06c12.49,13.02,29.59,30.84,34.98,37.75c0.9,1.15,1.92,2.39,3,3.71c8.1,9.87,23.18,28.25,8,41.29
			c-6.48,5.56-14.44,7.98-23.6,7.22c-19.52-1.64-38.9-17.61-44.74-24.65c-17.65-21.24-26.59-51.95-26.69-91.55
			c-6.84-5.31-13.18-9.9-16.81-11.92c-9.09-5.09-19.45-12.67-22.4-14.87c-17.71-13.2-76.13-54.97-89.89-61.86
			c-9.9-4.96-20.62-7.7-31.97-10.6c-4.49-1.15-9.13-2.33-13.81-3.68l-3.74-1.09c-11.84-3.45-23.03-6.71-35.12-6.91
			c-15.23-0.24-20.37,0.04-26.91,7.75c-10,11.78-10.94,35.07-8.43,47.1c4.5,21.57,16.16,42.84,26.44,61.6
			c1.28,2.33,2.54,4.63,3.75,6.88c7.44,13.73,33.11,55.15,49.21,79.18c5.43,0.31,10.85,0.68,16.25,1.14l7.16,0.59
			c29.69,2.42,63.33,5.16,87.55,20.6c3.01,1.91,6.31,3.82,9.8,5.84c6.56,3.78,13.34,7.69,18.85,12.12
			c7.27,5.82,11,12.63,11.76,21.43c0.5,5.81-1.64,10.96-6.18,14.9c-10.16,8.81-30.14,8.9-36.38,7.46c-8.8-2.05-14.6-4.35-20.74-6.78
			c-2.69-1.06-5.49-2.18-8.75-3.35c-38.65-13.83-70.66-39.41-79.21-50.03c-1.86-2.31-4.49-5.97-7.64-10.54
			c-16.3-0.76-32.68-0.99-48.68-1.22l-6.65-0.1c-0.07,0-0.13,0-0.2,0c-12.33,0-75.02,15.33-91.12,30.05
			c-15.25,13.94-18.69,31.41-19.17,53.34c-0.32,14.65,2.12,21.19,3.6,23.78l0.25,0.49c6.24,13.3,36.24,50.08,45.58,58.89
			c12.47,11.13,32.29,19.82,46.1,25.38c10.77,4.33,23.23,6.73,35.29,9.04c4.77,0.92,9.53,1.83,14.21,2.85
			c8.22,1.8,16.76,3.1,25.25,4.07c2.6-2.15,5.18-4.31,7.71-6.44c17.46-14.67,35.52-29.83,60.85-38.95
			c13.78-4.96,39.03-4.44,48.61,9.49c6.98,10.15,3.65,26.1-3.72,34.06c-17.11,18.51-48.9,19.64-80.68,18.08
			c-8.96-0.43-18.63-1.01-28.53-1.98c-1.24,1-2.49,1.99-3.74,2.97c-26.67,20.82-40.14,50.43-46.74,71.59
			c-5.88,18.84-2.5,35.27,4.86,55.68c4.86,13.48,11.2,23.61,21.19,33.88c10.41,10.69,17.84,15.61,36.91,18.32
			c8.5,1.21,19.53,2.36,29.5,0.51c13.55-2.53,27.55-8.78,40.49-18.09c26.94-19.38,94.77-99.81,101.67-111.38l3.21-5.36
			c8.87-14.78,17.25-28.73,22.7-43.73c4.75-13.06,12.75-39.83,12.83-40.1l13.15,3.93c-0.33,1.11-8.19,27.42-13.08,40.86
			c-5.9,16.24-15.02,31.42-23.83,46.11l-3.19,5.33c-8.09,13.56-76.4,94.6-105.45,115.49c-14.57,10.47-30.47,17.54-45.99,20.43
			C281.08,1554.67,276.3,1555,271.65,1555z M774.79,1269.86c-6.98,0-23.33,0.85-23.85,8.82c-0.13,2,2.2,10.78,37.69,39.64
			c1.29,1.05,2.33,1.9,3.06,2.51c5.23,4.39,15.06,11.31,22.23,16.35l4.22,2.98c6.19,4.39,21.68,12.42,46.05,23.86l1.97,0.93
			c1.49,0.71,3.9,1.5,6.92,2.33c-6.75-26.32-17.94-49.64-29.67-62.29c-7.5-8.09-34.52-34.54-67.18-35.11
			C775.81,1269.86,775.33,1269.86,774.79,1269.86z M256.38,1344.81c4.84,0.33,9.56,0.58,14.09,0.8
			c17.79,0.88,54.82,2.67,69.94-13.69c3.87-4.18,5.17-13.05,2.48-16.95c-4.57-6.64-22.27-8.08-32.65-4.35
			C288.47,1318.46,272.67,1331.17,256.38,1344.81z M810.67,1181.9c-5.32,0-10.32,1.52-14.98,5.19c-2.59,2.04-2.63,3.91-2.33,5.46
			c1.52,7.94,15.67,20.1,38.9,27.01c28,8.34,54.25,13.68,80.24,16.33c2.44,0.25,4.7,0.54,6.88,0.81c1.18,0.15,2.3,0.3,3.41,0.43
			c-23.6-14.76-54.12-31.32-65.05-35.88c-3.69-1.54-7.89-3.9-12.34-6.4C832.79,1187.78,821.12,1181.9,810.67,1181.9z
			 M250.22,1137.58c0.24,0.31,0.47,0.6,0.69,0.87c7.93,9.85,39.15,33.55,73.14,45.71c3.42,1.22,6.36,2.39,9.18,3.51
			c5.9,2.34,10.99,4.36,18.79,6.17c4.49,1.03,18.97,0.14,24.27-4.46c1.37-1.19,1.59-2.2,1.49-3.35c-0.36-4.22-1.63-7.85-6.67-11.89
			c-4.7-3.76-11.02-7.41-17.13-10.94c-3.47-2-7.05-4.07-10.32-6.15c-21.35-13.61-53.19-16.2-81.29-18.49l-7.2-0.6
			C253.53,1137.83,251.88,1137.7,250.22,1137.58z M423.9,1042.98c1.41,26.15,7.51,52.6,23.12,71.39
			c4.41,5.3,20.84,18.52,35.33,19.74c5.45,0.48,9.88-0.83,13.51-3.95c4.18-3.59-0.38-10.85-9.66-22.16
			c-1.16-1.41-2.26-2.75-3.21-3.98c-4.96-6.36-22.47-24.61-34.06-36.69c-4.4-4.59-8.01-8.35-9.92-10.41l-0.4-0.48
			C436.88,1054.24,431.01,1048.94,423.9,1042.98z M823.15,1066.2c-16.9,0-35.4,5.05-50.85,13.88c-9.04,5.18-17.54,12.27-22.73,18.99
			c-5.54,7.17-7.01,13.14-4.38,17.73c5.62,9.79,15.77,13.3,30.18,10.45l0.33-0.06c7.87-1.56,31.81-6.3,43.19-14.77
			c8.66-6.44,11.98-15.28,15.81-25.51c0.51-1.36,1.02-2.72,1.54-4.07c1.1-2.86,2.59-9,4.11-16.27c-5.56-0.19-11.14-0.32-16.71-0.36
			C823.49,1066.2,823.32,1066.2,823.15,1066.2z M630.05,995.58c-9.81,23.52-22.61,55.62-24.81,66.36
			c-2.85,13.9-1.96,22.36,3.62,34.82l0.61,1.37c4.51,10.17,8.65,17.96,17.9,17.53c14.34-0.61,14.24-29.72,14.2-42.15
			c0-1.27-0.01-2.42,0-3.44C641.67,1056.68,635.61,1023.1,630.05,995.58z"/>
	</g>
	<g style="clip-path:url(#SVGID_00000152947466733787529410000004136081776035668871_);">
		<path class="st1" d="M568.87,1312.21c-6.41,0-12.78-0.08-19.06-0.15c-5.88-0.07-11.75-0.15-17.61-0.15
			c-16.06-0.02-32.12-0.02-48.18-0.01l-24.44,0.01l0,0.05c-31.22,1.12-65.03-26.59-69.77-49.08c-4.27-20.24,4.11-36.6,24.9-48.61
			c15.59-9.01,31.73-15.3,52.32-20.4c3.88-0.96,7.85-1.98,11.88-3.01c13.78-3.53,28.03-7.18,41.73-9.39
			c9.4-1.52,19.08-2.85,28.43-4.14c17.56-2.42,35.71-4.91,52.76-8.75c4.78-1.07,9.16-2.18,13.4-3.24
			c10.37-2.6,20.16-5.06,32.84-6.44c9.03-0.98,19.01-1.9,30.81-1.96c21.06-0.1,44.91-0.22,65.78,7.97
			c22.48,8.82,26.89,20.77,26.7,37.2c-0.12,10.73-1.57,26.51-12.71,39.68c-21.03,24.85-67.41,44.47-81.12,49.89
			c-30.87,12.2-58.73,18.75-85.16,20.03C584.59,1312.1,576.71,1312.21,568.87,1312.21z M509.72,1298.16c7.5,0,15.01,0.01,22.51,0.02
			c5.9,0.01,11.82,0.08,17.75,0.15c13.75,0.16,27.98,0.34,41.74-0.33c24.91-1.2,51.33-7.44,80.78-19.08
			c12.96-5.13,56.73-23.58,75.69-45.99c6.3-7.45,9.31-17.29,9.46-30.97c0.12-10.66-1.03-17.61-17.98-24.27
			c-18.42-7.23-39.93-7.13-60.7-7.02c-10.55,0.06-19.38,0.79-29.39,1.88c-11.74,1.27-20.66,3.52-30.98,6.11
			c-4.35,1.09-8.84,2.22-13.73,3.32c-17.62,3.96-36.06,6.5-53.9,8.96c-9.28,1.27-18.87,2.6-28.11,4.09
			c-13.09,2.11-27.03,5.68-40.52,9.13c-4.06,1.04-8.07,2.06-11.99,3.03c-19.55,4.83-34.13,10.5-48.75,18.95
			c-15.49,8.96-21.32,19.73-18.33,33.9c3.2,15.18,29.68,38.55,55.06,38.21v-0.07l25.7-0.01
			C492.59,1298.17,501.16,1298.16,509.72,1298.16z"/>
	</g>
</g>
</svg>
