<?xml version="1.0" encoding="utf-8"?>
<!-- Generator: Adobe Illustrator 27.9.0, SVG Export Plug-In . SVG Version: 6.00 Build 0)  -->
<svg version="1.1" id="Camada_1" xmlns="http://www.w3.org/2000/svg" xmlns:xlink="http://www.w3.org/1999/xlink" x="0px" y="0px"
	 viewBox="0 0 1360.8 620.3" style="enable-background:new 0 0 1360.8 620.3;" xml:space="preserve">
<style type="text/css">
	.st0{fill:none;stroke:#DBD503;stroke-width:12;stroke-miterlimit:10;}
	.st1{fill:none;stroke:#1D1D1B;stroke-width:12;stroke-miterlimit:10;}
</style>
<path class="st0" d="M800.6,197.9c3.7-7.6,10.5-21.5,15.1-29.3c7.4-12.9,18.6-24.6,30.4-37l0.4-0.4c0.7-0.8,1.5-1.6,2.2-2.3l0.1-0.1
	c0.7-0.7,1.3-1.4,2-2c9.4-10,99.7-77.7,137.6-94.8c18.2-8.3,38-13.9,57.4-16.1c5.2-0.6,10.9-0.9,17.2-0.9c9.6,0,18.8,0.8,24.9,1.3
	c27.7,2.5,39,7.2,54,16.9c14.1,9,23.1,18,30,30.1c10.6,18.4,15,32.4,6.5,49.5c-13.1,26.3-35.6,47.9-65.1,62.4
	c-1.9,0.9-3.9,3-6.2,4.2l-1.2,0.7l-1.4-0.1c-13.8-0.9-27.3-2.5-39.8-2.9c-8.8-0.3-16.4-0.4-23.2-0.4c-39.5,0-63.4,4.3-77.4,13.8
	c-4.6,3.1-7.5,7.9-7.9,12.9c-0.3,3.7,1,7.1,3.7,9.5c5.4,5,18.6,8,34.3,8c7.5,0,14.7-0.7,20.5-2c31.8-7.2,55-19.4,77.5-31.2l13.9-7.9
	l1.4,0.1c12.6,0.8,25,2.6,36.9,4.2c4,0.6,8.1,1.1,12,1.6c2.3,0.3,4.5,0.5,6.7,0.8c17.1,2,33.8,4.1,48.5,7.8
	c18.9,4.7,46.1,12.2,64.1,22.4c14.6,8.7,54.2,39.8,62.3,50.8l0.1,0.2c4.1,4.6,6,12.1,5.7,22.2c-0.5,16.5-3.2,33.9-28.1,48.2
	c-23.2,13.4-109.4,26.6-127,26.6l-10.3-0.1c-21.8-0.2-44.8,0.7-67,0.1l-1.9-0.1l-1.4-1.3c-4.3-4.1-7.6-8.5-10.3-10.5
	c-10.7-8.3-52.9-29.2-101.6-40.2c-3.3-0.7-6.2-1.4-9-2.1l-0.2-0.1c-0.9-0.2-1.8-0.5-2.7-0.7c-7.9-2-15.3-3.7-26.4-5.4
	c-1.5-0.2-4.6-0.4-8.9-0.4c-13.2,0-29.3,2.1-35.1,7.8c-1.8,1.8-2.6,3.9-2.3,6.1c0.9,6.1,4.8,10.6,12.7,14.6
	c6.7,3.4,15.3,6.5,23.7,9.6l0.3,0.1c2,0.8,4,1.5,5.9,2.2c2.5,0.9,5,1.9,7.3,2.8c30.2,12.2,73.6,14.4,111.9,16.4l0.8,0
	c1.5,0.1,3.1,0.2,4.6,0.2c1.7,0.1,3.3,0.2,4.8,0.3c7.7,0.4,15.7,0,24.2,0.4l1.9,0.1l1.4,1.3c20.6,19.3,56,55.9,66.6,68.3
	c0.8,1,1.7,2,2.6,3c0.8,0.9,1.6,1.8,2.4,2.7l0.7,0.8c13.7,15.8,29.2,33.6,35.3,52.1c3.4,10.6,2.9,31.8-13,43.5
	c-9.8,7.3-18.5,8.4-35.5,8.4c-2.2,0-4.5,0-7,0c-16.8-0.1-32.4-2.9-47.5-5.7l-6.5-1.2c-3.6-0.6-7.3-1.2-10.9-1.8l-0.1,0
	c-2.4-0.4-4.8-0.8-7.1-1.2l-1.1-0.2c-15.2-2.5-29.5-4.8-43.2-9.1c-18.6-5.8-97.2-41.1-120.9-52.3c-0.2-0.1-15.4-7.3-28.8-12
	c-4.9-1.7-14.6-4.9-25-10l-2.8-1.4l0-3.1c-0.4-31.7-10.5-56.7-32.4-73.3c-6.7-5-32.6-18.8-57.4-18.8c-8.3,0-15.5,1.6-21.5,4.8
	c-3.6,1.9-5.6,4.3-5.7,7.1c-0.6,6.9,9,14.2,17.4,20.7c0.5,0.4,1.1,0.8,1.6,1.2c0.9,0.7,1.7,1.3,2.4,1.9c7,5.5,29.5,20.3,45.9,31.1
	l5.2,3.4c3.3,2.2,6.2,4,8.1,5.3l0.2,0.1c3.8,3,18,10,34,18l2.9,1.5l-0.1,3.2c-0.3,7.4-2.1,15.6-3.4,23.3
	c-6.3,35.8-22.8,69.2-29.9,79.7c-7.7,11.5-16.5,22.2-26.1,31.8c-11.8,11.8-38.5,19.5-68.2,19.5c-10.3,0-20.5-0.9-30.1-2.7
	c-16.2-3-70.4-24.8-102.3-58.8c-3.9-4.1-18.5-28.3-21.4-36.3l-0.2-0.6c-0.9-2.4-3.4-6.1-4.9-10.4l-0.8-2.4l1.4-2.1
	c15.4-22.3,40.8-59.4,44.6-71.1c4.3-13.1,2.9-21.5-5.5-33.3l-0.9-1.2c-5.5-7.7-13-18.4-31.8-18.4c-0.4,0-0.9,0-1.3,0
	c-25.4,0.7-28.5,22.7-28.3,41.8v2.8c-0.2,16,15.1,60.8,21.4,79.2l0.8,2.2l-1.2,2c-0.7,1.2-2.3,2.2-3,3c-17.5,22.7-39.1,38.7-70,51.9
	c-14.1,5.9-58.1,19.8-65.2,21.9l-1,0.3c-19,5.5-38.7,11.2-63,11.2h-0.5c-33.4-0.1-53-8.6-72.2-21.3c-10.1-6.7-24.2-39.9-23.9-49.9
	c0.3-13.9,2-27.9,3.7-41.4l0.2-1.4c0.8-6.5,1.8-14.2,2.5-21.7c0.4-4,1.8-14.5,4.7-24.2l1.1-3.7l3.9,0.1c10.7,0.3,20.9,1.7,29.7,1.7
	l0.8,0c24.2,0,50.6-4.5,72.4-12.4c17.8-6.6,39.7-18.3,42.6-29.8c0.9-3.7-0.1-7.1-2.8-10c-7.7-8.4-20.1-12.7-36.7-12.7
	c-4.4,0-9,0.3-13.8,0.9l-0.3,0h-0.4l-0.6,0.1c-13.2,1.7-44,5.7-60.6,13.4c-13.9,6.5-19.6,16-24.6,24.4c-0.3,0.5-0.6,1-0.9,1.5
	c-0.4,0.6-0.7,1.2-1,1.7c-1.8,2.9-3.4,10.2-5.9,18.2l-1.1,3.6l-3.8-0.1c-10.1-0.3-21.1-1.6-31.4-2.1c-3-0.1-6.1-0.2-9.2-0.3
	c-10.7-0.4-21.7-0.8-32.7-1.1c-9.6-0.2-45-3-53.5-4l-2.7-0.3l-1.4-0.2c-14.5-1.8-25-3.2-38.4-6.9c-27.6-7.5-75.9-24.4-87.8-37.7
	l-0.1-0.1c-6.8-7.7-18.2-20.5-16.7-56.3c0.3-7.5,7.4-15.1,19.5-20.9c12.8-6.1,35-9.9,52.8-12.9l0.6-0.1c1-0.2,2.1-0.3,3.2-0.5
	c1.2-0.2,2.3-0.4,3.5-0.6c25.9-4.5,48.3-9.6,68.3-11.2l1.3-0.1l1.2,0.5c33.3,14.9,95.8,38.3,111,42.3c3.7,1,7.9,2.4,12.7,4.1l2.8,1
	c14.7,5.2,33,11.6,50.8,11.6c9.7,0,18.2-1.9,25.9-5.7c5.2-2.6,7.6-5.9,7.1-9.7c-1.4-10.6-26.2-22.7-59-28.9
	c-37.3-7-72.8-11.6-108.6-13.9c-1.8-0.1-3.5-0.3-5.2-0.4c-1.2-0.1-2.4-0.2-3.7-0.3c-6.1-0.5-11.6-0.9-17.7-0.9
	c-2.6,0-5.2,0.1-7.8,0.2c-2.5,0.2-5.2,0.4-7.8,0.6l-1.8,0.1l-1.2-0.5c-7-3.2-11.8-5.8-14.4-7.8c-10-7.4-49.7-39.4-55.1-47.6
	c-2.4-3.6-6.3-15.4-2.6-27.4c3-10.1,10.8-17.9,23.1-23c17.3-7.2,32.3-10.7,47.1-10.9c1.1,0,2.2,0,3.3,0c8.2,0,16.3,0.3,24.9,1
	c9.3,0.7,35.3,2.1,55.6,4.8l3.1,0.4l1,2.9c1.6,4.7,2.4,10.6,4.9,15.9c9.4,19.3,23.3,36,38,46c13.6,9.3,50.4,30.9,96.3,31.3
	c0.8,0,1.5,0,2.2,0c26.2,0,40.5-4.6,41.4-13.4c1.1-10.6-38.9-31-53.9-38.7c-1.6-0.8-3.1-1.5-4-2c-6.8-3.6-18.9-8.9-28.5-13.2
	l-1.7-0.8c-0.6-0.3-1.2-0.5-1.8-0.8c-1.3-0.6-2.5-1.2-3.7-1.7c-15-6.6-60.8-19.9-62.8-20.5l-2.5-0.8c-3.9-1.2-12.4-1.6-22.7-3.1
	l-3.2-0.5l-0.9-3.1c-3.9-13.3-4.5-27.2-3.2-39.4c2.8-26.6,18.3-46.2,44.7-56.7c12.9-5.1,27.1-7.6,43.4-7.6c10.6,0,22.2,1.1,34.5,3.3
	c20,3.5,32,9,47.2,15.9l0.7,0.3l0.8,0.3c24.1,11,39.9,19.3,54.2,31.7c5.2,4.7,56.6,57.8,65.9,69.6c5.3,6.7,11.7,19.3,14.3,28"/>
<path class="st1" d="M800.4,198c3.7-7.6,10.5-21.5,15.1-29.3c7.4-12.9,18.6-24.6,30.4-37l0.4-0.4c0.7-0.8,1.5-1.6,2.2-2.3l0.1-0.1
	c0.7-0.7,1.3-1.4,2-2c9.4-10,99.7-77.7,137.6-94.8c18.2-8.3,38-13.9,57.4-16.1c5.2-0.6,10.9-0.9,17.2-0.9c9.6,0,18.8,0.8,24.9,1.3
	c27.7,2.5,39,7.2,54,16.9c14.1,9,23.1,18,30,30.1c10.6,18.4,15,32.4,6.5,49.5c-13.1,26.3-35.6,47.9-65.1,62.4
	c-1.9,0.9-3.9,3-6.2,4.2l-1.2,0.7l-6.7,3.8c-10.6,5.9-24.5,13.3-35.9,18.4c-6.3,2.8-13.4,6-19.9,8.2c-28.8,9.9-36.4,10.3-53.4,10.3
	c-4.4,0-8.6-0.6-12.8-1.4c-5-0.9-15.1-3.7-17.4-6.5c-7.3-8.7-2.6-19.9,9.4-25.5c6.8-3.2,16.1-6.4,22-7.2c30.3-4.5,52.8-3.6,64.6-3.6
	c12.5,0,50.1,3.2,50.1,3.2l1.4,0.1c12.6,0.8,25,2.6,36.9,4.2c4,0.6,8.1,1.1,12,1.6c2.3,0.3,4.5,0.5,6.7,0.8
	c17.1,2,33.8,4.1,48.5,7.8c18.9,4.7,46.1,12.2,64.1,22.4c14.6,8.7,54.2,39.8,62.3,50.8l0.1,0.2c4.1,4.6,6,12.1,5.7,22.2
	c-0.5,16.5-3.2,33.9-28.1,48.2c-23.2,13.4-109.4,26.6-127,26.6l-10.3-0.1c-21.8-0.2-44.8,0.7-67,0.1l-1.9-0.1l-10.4-0.3
	c-6.2-0.4-16.6-0.5-20-0.7c-12.7-0.9-35.6-0.5-75.8-5.9c-3.4-0.5-21.5-4.4-24.3-5.1c0,0-14-4.3-14.9-4.6c-5.5-1.8-7.8-3.7-14-5.4
	c-1.4-0.4-6.4-2.5-11.2-4.3c-12.3-4.7-17.1-7.3-21.5-10.3c-2.1-1.4-6-8-5.9-10.2c0-7.1,10.9-11.8,22.6-13.1
	c7.3-0.8,19.1-0.8,19.1-0.8c3.1,0.2,10.7,1.2,13.4,1.8c2.6,0.6,13.4,2.8,15.9,3.4c27.4,6.7,51.5,11.8,84,26.6l13.7,6.5
	c1.5,0.1,7.1,3.9,8.5,4.5c2.4,1.1,5.6,3.2,6.9,4.2c7.1,5.5,8.4,8.3,11.7,11.2l2.3,2.3l1.4,1.3c20.6,19.3,56,55.9,66.6,68.3
	c0.8,1,1.7,2,2.6,3c0.8,0.9,1.6,1.8,2.4,2.7l0.7,0.8c13.7,15.8,29.2,33.6,35.3,52.1c3.4,10.6,2.9,31.8-13,43.5
	c-9.8,7.3-18.5,8.4-35.5,8.4c-2.2,0-4.5,0-7,0c-16.8-0.1-32.4-2.9-47.5-5.7l-6.5-1.2c-3.6-0.6-7.3-1.2-10.9-1.8l-0.1,0
	c-2.4-0.4-4.8-0.8-7.1-1.2l-1.1-0.2c-15.2-2.5-29.5-4.8-43.2-9.1c-18.6-5.8-97.2-41.1-120.9-52.3c-0.2-0.1-15.4-7.3-28.8-12
	c-4.9-1.7-14.6-4.9-25-10c0,0-6.7-3.4-8.9-4.6c-6.4-3.4-25.6-13.7-25.6-13.7c-12.8-8.5-18.8-12.2-34.7-22.7
	c-6.3-4.2-12.9-8.5-29.4-20.3c-10-7.2-31-21.7-15.4-30.4c8.2-4.6,19.5-4.9,22.3-4.9c2.4,0,11.1,0.3,18.3,2.3
	c0.6,0.2,13.6,4.1,14.5,4.5c7.4,2.8,14.4,5.7,23.9,12c10.8,7,17,17.4,17,17.4c2.8,4,7.5,13.2,10.3,21.7c0,0,4.4,14.6,4.3,23.1
	l1,10.8l0.1,6.5c-0.3,7.4-2.1,15.6-3.4,23.3c-6.3,35.8-22.8,69.2-29.9,79.7c-7.7,11.5-16.5,22.2-26.1,31.8
	c-11.8,11.8-38.5,19.5-68.2,19.5c-10.3,0-20.5-0.9-30.1-2.7c-16.2-3-70.4-24.8-102.3-58.8c-3.9-4.1-18.5-28.3-21.4-36.3l-0.2-0.6
	c-0.9-2.4-3.4-6.1-4.9-10.4l-0.8-2.4l-2.5-8.7c-10.8-33-11.5-37.7-15.1-49.4c-4.3-14-3.4-17.1-4-26.2l0.3-10.9
	c2-13.7,6.9-31.1,29.2-30.8c0.4,0,20.1-2.3,34.2,21.9c0,0,11.3,11.7,4.1,30.9c-4.2,11.1-13.4,23.1-21.1,36.3l-24.8,37l-1.2,2
	c-0.7,1.2-2.3,2.2-3,3c-17.5,22.7-39.1,38.7-70,51.9c-14.1,5.9-58.1,19.8-65.2,21.9l-1,0.3c-19,5.5-38.7,11.2-63,11.2h-0.5
	c-33.4-0.1-53-8.6-72.2-21.3c-10.1-6.7-24.2-39.9-23.9-49.9c0.3-13.9,2-27.9,3.7-41.4l0.2-1.4c0.8-6.5,1.8-14.2,2.5-21.7
	c0.4-4,1.8-14.5,4.7-24.2l1.1-3.7l6.5-18.2c11.2-24.5,27.3-30.3,27.3-30.3c8.4-4.2,14.1-6.3,32.6-9.4c21.7-3.7,42.1-6.1,52.4-4.5
	c19.1,3,24.9,9.1,27.6,12.1c12.4,14.1-14,27.7-28.8,35.4c-4.9,2.6-20,7.5-20,7.5c-16.6,4.7-33.1,8.1-51.3,9c-7,0.3-9.5-0.1-14.2,0.2
	c-0.6,0-14.3-0.2-14.8-0.2c-2.6-0.1-8.7-0.4-10.7-0.6l-6.1-0.3l-3.8-0.1c-10.1-0.3-21.1-1.6-31.4-2.1c-3-0.1-6.1-0.2-9.2-0.3
	c-10.7-0.4-21.7-0.8-32.7-1.1c-9.6-0.2-45-3-53.5-4l-2.7-0.3l-1.4-0.2c-14.5-1.8-25-3.2-38.4-6.9c-27.6-7.5-75.9-24.4-87.8-37.7
	l-0.1-0.1c-6.8-7.7-18.2-20.5-16.7-56.3c0.3-7.5,7.4-15.1,19.5-20.9c12.8-6.1,35-9.9,52.8-12.9l0.6-0.1c1-0.2,2.1-0.3,3.2-0.5
	c1.2-0.2,2.3-0.4,3.5-0.6c25.9-4.5,48.3-9.6,68.3-11.2l2.4-0.1l9.6-0.2c35.9,0.6,83.2,5.5,98.8,7.7c5.5,0.8,36.6,6.5,36.6,6.5
	c17.6,4.1,31.9,5.4,47.5,14c8.5,4.7,16,10.2,17.4,14c4.6,12.6-17.7,16.2-21.9,16.7c-10.6,1.3-24.2,2.3-58.5-9.5
	c-23-7.9-69.7-23.9-89.4-32c-1.1-0.5-4-1.8-5.1-2.1c-1.2-0.3-3.6-1.5-4.8-1.8c-4.7-1.5-10.3-4.4-14.6-5.9c-2.2-0.8-4.8-2.3-7.3-3.1
	c-1.6-0.5-4.6-2.2-6.1-2.7l-2.8-0.8l-1.6-0.5c-7-3.2-11.8-5.8-14.4-7.8c-10-7.4-49.7-39.4-55.1-47.6c-2.4-3.6-6.3-15.4-2.6-27.4
	c3-10.1,10.8-17.9,23.1-23c17.3-7.2,32.3-10.7,47.1-10.9c1.1,0,2.2,0,3.3,0c8.2,0,16.3,0.3,24.9,1c9.3,0.7,34.8,2.1,55.2,4.8
	l4.6,1.4l5,0.7c19.7,1,64.7,15.5,81,22.5c18.6,8,34.9,15.8,59,28.5c2.9,1.5,27,16.7,27.6,17.1c22.9,15.6,1.9,22.8-6.8,24.4
	c-30.2,5.5-56.4-0.9-69.4-4.5c-1.8-0.5-7.7-2.4-8.7-2.6c-6-1.6-26.1-10.3-41-19.9c-11.4-7.3-23.9-21.7-28.7-27.6
	c-2.1-2.6-4.1-5.4-5.8-8.3l-3-4.9c-2-3.3-3.8-6.8-5.3-10.4c-2.9-7.3-2.7-10.5-4.2-13.9L250,158l-1.9-3.2
	c-3.9-13.3-4.5-27.2-3.2-39.4c2.8-26.6,18.3-46.2,44.7-56.7c12.9-5.1,27.1-7.6,43.4-7.6c10.6,0,22.2,1.1,34.5,3.3
	c20,3.5,32,9,47.2,15.9l0.7,0.3l0.8,0.3c24.1,11,39.9,19.3,54.2,31.7c5.2,4.7,56.6,57.8,65.9,69.6c5.3,6.7,11.7,19.3,14.3,28"/>
</svg>
