<?xml version="1.0" encoding="utf-8"?>
<!-- Generator: Adobe Illustrator 26.4.1, SVG Export Plug-In . SVG Version: 6.00 Build 0)  -->
<svg version="1.1" id="Camada_1" xmlns="http://www.w3.org/2000/svg" xmlns:xlink="http://www.w3.org/1999/xlink" x="0px" y="0px"
	 viewBox="0 0 1366 768" style="enable-background:new 0 0 1366 768;" xml:space="preserve">
<style type="text/css">
	.st0{fill:#1D1D1B;}
</style>
<g>
	<g>
		<path class="st0" d="M744.34,686.64c-10.64,0-21.31-0.94-31.43-2.82c-17.42-3.23-72.62-25.3-105.88-60.76
			c-4.73-5.05-19.6-30.15-22.73-38.38c-0.3-0.8-0.75-2.01-1.32-3.59c-17.71,21.93-39.51,37.64-70.11,50.62
			c-14.29,6.06-58.42,19.98-65.92,22.18c-18.83,5.53-40.16,11.8-65.82,11.8c-0.16,0-0.32,0-0.48,0
			c-35.09-0.11-55.7-9.04-75.86-22.43c-12.87-8.55-27.07-44.67-26.85-55.43c0.3-14.7,2.13-29.34,3.9-43.51
			c0.88-7.06,1.8-14.37,2.5-21.55c0.36-3.68,2.32-12.17,4.87-21.32c-9.26-0.29-18.44-0.63-27.49-0.96
			c-13.65-0.5-27.76-1.03-41.75-1.37c-9.66-0.23-45.63-3.02-54.15-4.09l-2.59-0.32c-14.78-1.85-26.46-3.3-40.72-7.21
			c-3-0.82-73.64-20.36-90.85-39.58c-7.02-7.84-20.04-22.38-18.45-61.03c0.41-10.08,8.64-19.49,23.18-26.47
			c13.68-6.58,36.66-10.46,55.13-13.58c2.27-0.38,4.48-0.76,6.61-1.12c18.39-3.17,35.35-5.6,51.23-7.34
			c-9.52-7.07-50.4-39.74-56.6-49.25c-2.98-4.57-7.72-18.63-3.31-32.9c2.56-8.31,9.3-19.75,26.82-27.03
			c17.98-7.47,34.17-11.2,49.49-11.38c9.19-0.11,18.63,0.23,28.86,1.02c7.46,0.58,29.4,2.75,49.49,5.33
			c-3.06-12.44-4.05-24.72-2.83-36.06c2.19-20.27,12.43-47.49,48.76-62.03c22.35-8.94,49.01-10.5,81.5-4.76
			c21.14,3.73,34.33,9.76,49.6,16.73l0.71,0.33c20.05,9.16,39.4,18.56,55.69,32.74l0.1,0.09c4.9,4.48,56.65,57.77,66.64,70.44
			c6.73,8.54,15.47,26.2,16.65,36.17l-11.41,1.35c-0.82-6.91-8.29-22.82-14.27-30.41c-9.14-11.6-59.84-63.98-65.32-69.03
			c-13.76-11.96-29.2-20.09-52.87-30.91l-0.71-0.33c-15.16-6.93-27.13-12.4-46.83-15.87c-30.32-5.35-54.93-4.01-75.24,4.12
			c-24.56,9.83-38.95,28.01-41.6,52.59c-1.3,12.06,0.2,24.5,3.66,36.48c9.89,1.43,18.28,2.89,22.72,4.22l2.64,0.78
			c12.35,3.65,49.94,14.75,63.34,20.73c1.67,0.74,3.58,1.59,5.65,2.51c9.73,4.31,23.06,10.21,30.48,14.12
			c0.93,0.49,2.27,1.17,3.91,2.01c42.34,21.64,57.69,33.49,56.62,43.72c-1.29,12.38-17.23,18.22-48.73,17.89
			c-47.35-0.53-85.09-22.71-99.11-32.22c-15.4-10.44-29.88-27.92-39.71-47.95c-2.5-5.08-4.66-10.24-6.47-15.41
			c-20.25-2.7-44.69-5.21-53.97-5.93c-9.88-0.77-18.98-1.09-27.83-0.98c-14.02,0.17-28.38,3.5-45.21,10.5
			c-10.76,4.47-17.58,11.14-20.25,19.81c-3.2,10.36,0.37,20.8,1.96,23.23c4.48,6.86,40.97,36.76,53.89,46.35
			c2.64,1.96,7.35,4.46,13.46,7.29c2.8-0.21,5.56-0.4,8.3-0.56c10.01-0.6,17.91,0.04,26.27,0.71c2.81,0.23,5.72,0.46,8.83,0.66
			c35.42,2.27,71.13,6.84,109.17,13.96c27.69,5.18,60.81,16.95,63.04,33.06c0.49,3.52-0.14,10.14-9.83,14.93
			c-26.82,13.29-57.99,2.3-80.75-5.73c-5.81-2.05-10.84-3.82-15.03-4.92c-14.79-3.89-78.16-25.27-111.91-40.43
			c-20.47,1.64-42.75,4.57-67.74,8.88c-2.14,0.37-4.36,0.74-6.65,1.13c-17.75,3-39.85,6.73-52.06,12.6
			c-10.22,4.91-16.45,11.11-16.68,16.59c-1.4,33.99,9.18,45.8,15.5,52.86c11.07,12.37,58.23,28.76,85.36,36.2
			c13.47,3.69,24.22,5.04,39.1,6.89l2.59,0.32c8.34,1.04,43.55,3.78,53,4.01c14.06,0.34,28.21,0.87,41.9,1.37
			c10.03,0.37,20.21,0.75,30.48,1.06c2.51-7.82,5.16-14.84,7.28-18.3c0.67-1.09,1.32-2.19,1.98-3.28
			c5.33-8.94,11.37-19.06,26.66-26.21c17.63-8.25,50.52-12.34,62.9-13.89l0.42-0.05c17.46-2.18,41.15-1.63,54.82,13.35
			c3.88,4.25,5.25,9.27,3.95,14.5c-4.38,17.67-38.85,30.89-45.72,33.36c-22.72,8.18-50.04,12.84-74.91,12.72
			c-9.68-0.04-19.36-0.21-28.98-0.46c-2.68,9.24-4.89,18.34-5.26,22.11c-0.72,7.33-1.64,14.71-2.53,21.85
			c-1.73,13.88-3.53,28.22-3.82,42.32c-0.17,8.29,13.22,39.98,21.72,45.62c18.43,12.24,37.31,20.41,69.54,20.51
			c0.15,0,0.31,0,0.46,0c24,0,43.6-5.76,62.57-11.34c7.12-2.09,51.05-15.96,64.68-21.74c30.16-12.79,51.14-28.3,68.04-50.28
			c0.46-0.6,1.15-1.54,2.02-2.77c-8.09-23.76-21.06-64.83-20.86-80.69c0.01-0.8,0-1.71,0-2.72c-0.06-12.55-0.24-45.91,33.24-46.8
			c22.52-0.56,31.84,12.62,37.4,20.51l0.78,1.11c9.26,12.99,10.95,23.22,6.22,37.75c-4.29,13.18-31.61,54.57-44.04,72.62
			c1.61,4.63,2.96,8.35,3.86,10.72c2.74,7.22,16.94,30.94,20.37,34.6c31,33.04,83.81,54.39,99.6,57.32
			c36.5,6.77,78.59-0.12,93.84-15.36c9.42-9.42,18.01-19.87,25.54-31.08c6.82-10.16,22.92-42.56,29.13-77.82
			c1.37-7.77,2.2-15.18,2.49-22.23c-14.8-7.42-29.56-15.48-33.99-18.95c-2.54-1.71-7.31-4.84-12.81-8.44
			c-16.6-10.88-39.34-25.78-46.45-31.52c-1.2-0.97-2.57-2.02-4.02-3.13c-9.43-7.22-20.12-15.41-19.35-25.02
			c0.25-3.16,1.91-7.66,8.36-11.14c28.93-15.62,74.01,6.67,84.18,14.37c23.1,17.48,35.16,43.67,35.61,76.73
			c9.38,4.58,18.16,8.57,23.3,10.38c11.88,4.18,25.47,10.44,29.35,12.25c23.66,11.09,101.78,46.19,120.3,52.03
			c13.67,4.3,28.2,6.64,43.59,9.11c5.93,0.95,12.06,1.94,18.2,3.05l4.95,0.9c15.41,2.83,31.35,5.75,48.19,5.92
			c20.17,0.21,29.51-0.01,39.46-7.38c13.15-9.74,14.45-28.02,11.17-37.88c-5.91-17.79-21.36-35.53-34.99-51.17
			c-1.7-1.96-3.38-3.88-5-5.76c-10.05-11.66-45.09-47.2-66.49-67.2c-7.97-0.27-15.93-0.6-23.86-1.02c-3.14-0.17-6.32-0.33-9.52-0.49
			c-38.91-1.99-83.01-4.25-114.23-16.76c-4.09-1.64-8.54-3.25-13.24-4.96c-8.58-3.11-17.45-6.33-24.55-9.91
			c-9.56-4.82-14.3-10.46-15.37-18.29c-0.51-3.78,0.79-7.43,3.67-10.28c10.31-10.22,41.33-9.82,48.33-8.8
			c11.33,1.66,18.87,3.54,26.86,5.53c3.65,0.91,7.43,1.85,11.8,2.84c50,11.25,92.85,32.69,103.67,41.14
			c2.66,2.08,6.5,5.44,11.09,9.67c22.53,0.7,45.16,0.9,67.26,1.09l8.96,0.08c16.61,0.17,102.17-12.79,124.93-25.88
			c22.68-13.04,25.08-28.87,25.61-43.98c0.3-8.73-1.25-15.24-4.5-18.82l-0.35-0.42c-7.84-10.51-46.99-41.2-60.94-49.49
			c-17.26-9.67-44.08-17.07-62.76-21.8c-14.8-3.74-31.65-5.78-47.95-7.74c-6.17-0.75-12.56-1.52-18.76-2.37
			c-11.87-1.64-24.2-2.79-36.4-3.62c-4.01,2.07-7.96,4.16-11.84,6.21c-22.96,12.12-46.7,24.66-79.63,32.11
			c-17.2,3.89-48.05,3.05-59.22-7.16c-3.81-3.48-5.7-8.32-5.32-13.62c0.47-6.48,4.24-12.73,10.09-16.71
			c21.58-14.68,62.57-15.54,103.65-14.29c12.49,0.38,26.05,0.89,39.87,1.79c2.13-1.09,4.29-2.17,6.46-3.23
			c28.42-13.96,50.1-34.75,62.7-60.13c7.48-15.08,3.3-27.86-6.44-44.85c-6.45-11.25-14.94-19.76-28.39-28.45
			c-14.26-9.21-25.12-13.73-51.78-16.12c-11.74-1.05-27.01-2.05-41.04-0.4c-18.78,2.2-38.09,7.61-55.86,15.65
			c-37.23,16.84-126.63,83.73-136.04,93.65c-1.43,1.5-2.86,3-4.29,4.5c-11.79,12.35-22.93,24.02-30.14,36.49
			c-6.3,10.89-16.92,33.24-17.03,33.46l-10.38-4.93c0.44-0.93,10.93-23,17.46-34.29c7.9-13.66,20.04-26.38,31.78-38.67
			c1.42-1.49,2.85-2.98,4.26-4.48c10.73-11.31,101.21-78.83,139.64-96.21c18.83-8.51,39.32-14.25,59.25-16.59
			c15.08-1.77,31.11-0.73,43.4,0.37c26.05,2.33,39.36,6.52,56.99,17.91c14.89,9.62,24.79,19.61,32.12,32.38
			c8.92,15.55,17.53,33.97,6.76,55.67c-12.18,24.56-32.07,45.13-57.87,59.98c6.33,0.62,12.62,1.34,18.8,2.19
			c6.1,0.84,12.44,1.61,18.57,2.35c16.66,2.01,33.88,4.09,49.39,8.01c30.73,7.78,51.59,15.07,65.63,22.95l0.12,0.07
			c13.73,8.14,54.5,39.61,64.18,52.32c5.24,5.93,7.69,14.92,7.28,26.73c-0.65,18.82-4.9,38.32-31.36,53.54
			c-25.27,14.53-112.48,27.57-130.76,27.41l-8.95-0.08c-17.96-0.16-36.27-0.32-54.61-0.75c21.43,20.61,48.95,48.71,57.99,59.21
			c1.61,1.87,3.27,3.77,4.96,5.71c14.34,16.46,30.6,35.11,37.23,55.1c5.09,15.35,1.49,38.34-15.24,50.73
			c-13.46,9.98-26.56,9.84-46.41,9.64c-17.82-0.18-34.25-3.2-50.14-6.11l-4.93-0.9c-6.02-1.09-12.1-2.07-17.97-3.01
			c-15.82-2.54-30.76-4.94-45.22-9.5c-19.92-6.28-100.11-42.46-121.72-52.58c-3.76-1.76-16.91-7.82-28.29-11.82
			c-4.48-1.58-11.74-4.79-19.85-8.65c-0.42,6.05-1.2,12.31-2.33,18.76c-7.05,40.05-25.13,73.63-30.9,82.24
			c-7.94,11.83-17.01,22.86-26.95,32.8c-9.11,9.11-25.17,15.92-45.23,19.19C762.89,685.92,753.63,686.64,744.34,686.64z
			 M592.27,449.37c-0.38,0-0.76,0-1.15,0.02c-9.76,0.26-15.84,4.18-19.12,12.35c-3.02,7.5-2.97,16.77-2.94,22.9
			c0.01,1.08,0.01,2.06,0,2.92c-0.15,12.16,9.63,44.85,17.5,68.71c13.31-19.76,34.52-52.71,37.73-62.55
			c3.6-11.05,2.51-17.48-4.65-27.53l-0.82-1.15C613.9,458.03,607.79,449.37,592.27,449.37z M781.59,433.84
			c-6.64,0-12.98,1.17-18.41,4.1c-1.9,1.03-2.36,1.8-2.37,1.94c-0.27,3.38,10.74,11.82,14.89,14.99c1.52,1.17,2.96,2.27,4.25,3.31
			c6.67,5.38,30.06,20.71,45.54,30.85c5.91,3.87,10.58,6.93,13.13,8.66l0.41,0.3c2.94,2.39,14.33,8.71,26.88,15.13
			c-1.56-26.67-11.9-47.36-30.93-61.76C828.68,446.61,803.5,433.84,781.59,433.84z M304.58,490.4c8.47,0.2,16.98,0.34,25.48,0.37
			c23.61,0.07,49.47-4.3,70.98-12.04c20.15-7.25,36.68-18.13,38.46-25.31c0.26-1.05,0.29-2.27-1.28-3.99
			c-10.36-11.35-30.14-11.54-44.92-9.69l-0.42,0.05c-10.75,1.34-43.47,5.42-59.46,12.89c-12.09,5.66-16.53,13.09-21.66,21.69
			c-0.68,1.14-1.36,2.28-2.06,3.41C308.31,480.04,306.47,484.76,304.58,490.4z M951.33,383.63c-4.4,0-9.86,0.27-15.24,1.01
			c-12.33,1.7-15.72,4.74-15.96,5.46c0.39,2.85,1.76,5.93,9.17,9.67c6.48,3.27,15.03,6.37,23.29,9.37c4.58,1.66,9.32,3.38,13.59,5.1
			c29.44,11.8,72.53,14,110.55,15.95c3.21,0.17,6.4,0.33,9.54,0.5c3.21,0.17,6.43,0.33,9.65,0.47
			c-10.28-7.96-50.92-28.09-99.04-38.92c-4.5-1.01-8.35-1.97-12.06-2.9c-8.04-2-14.98-3.74-25.74-5.31
			C957.51,383.8,954.74,383.63,951.33,383.63z M196.06,347.54c32.29,12.64,73.46,26.49,86.59,29.95c4.65,1.22,10.13,3.15,15.93,5.2
			c20.83,7.35,49.35,17.4,71.82,6.27c2.55-1.27,3.63-2.48,3.55-3.06c-0.66-4.75-17.1-16.48-53.77-23.34
			c-37.58-7.04-72.84-11.54-107.8-13.79c-3.21-0.21-6.16-0.44-9.02-0.67C200.86,347.89,198.45,347.69,196.06,347.54z M260.62,238.08
			c9.07,22.18,24.29,41.54,39.7,51.99c10.27,6.97,47.32,29.73,92.79,30.24c28.72,0.32,36.38-4.95,37.12-7.33
			c-0.41-0.95-3.13-5.59-19.78-15.8c-11.05-6.77-23.76-13.27-30.59-16.76c-1.7-0.87-3.08-1.57-4.04-2.08
			c-7.07-3.73-20.19-9.54-29.77-13.78c-2.08-0.92-4-1.77-5.68-2.52c-8.43-3.76-29.26-10.56-61.91-20.2l-2.67-0.79
			C272.76,240.15,267.33,239.13,260.62,238.08z M1042.92,256.47c-25.44,0-57.27,1.98-73.1,12.75c-2.88,1.96-4.88,5.11-5.09,8.03
			c-0.13,1.77,0.42,3.23,1.61,4.32c7.19,6.57,33.36,7.95,48.93,4.43c29.12-6.59,50.17-17.06,71.65-28.35
			c-6.97-0.31-13.76-0.54-20.27-0.74C1060.23,256.72,1051.98,256.47,1042.92,256.47z"/>
	</g>
	<g>
		<path class="st0" d="M511.52,414.84c-25.87,0-52.15-0.61-76.06-6.46c-25.36-6.21-34.68-14.72-34.37-31.41
			c0.27-14.6,5.9-25.74,17.22-34.08c27.69-20.4,89.12-36.59,107.29-41.07c40.87-10.07,77.7-15.48,112.59-16.53
			c18.87-0.57,38.17-0.42,56.84-0.28c7.77,0.06,15.81,0.12,23.67,0.13c21.46,0.02,42.93,0.01,64.39,0c11.1,0,22.19-0.01,33.29-0.01
			l0-0.04c18.09-0.37,38.77,4.15,56.77,12.42c17.81,8.17,29.88,18.38,33.14,28c3.03,8.95,1.49,17.49-4.44,24.68
			c-5.51,6.68-14.69,12.27-28.07,17.09c-20.51,7.39-41.77,12.55-68.92,16.74c-5.25,0.81-10.62,1.67-16.07,2.53
			c-18.36,2.93-37.34,5.96-55.46,7.78c-12.56,1.26-25.51,2.38-38.04,3.45c-23.68,2.03-48.17,4.13-71.28,7.37
			c-6.46,0.9-12.39,1.83-18.14,2.74c-13.72,2.15-26.69,4.18-43.33,5.31c-13.88,0.94-26.13,1.57-40.78,1.62
			C518.35,414.83,514.94,414.84,511.52,414.84z M669.47,296.36c-10.35,0-20.73,0.1-30.94,0.4c-34.07,1.03-70.11,6.33-110.18,16.2
			c-69.8,17.2-96.65,34.33-103.22,39.17c-8.47,6.24-12.34,13.97-12.55,25.04c-0.15,8.28,1.55,14.15,25.61,20.04
			c25.7,6.29,55.09,6.2,83.51,6.11c14.34-0.04,26.38-0.67,40.04-1.59c16.14-1.09,28.86-3.08,42.33-5.19
			c5.79-0.91,11.77-1.84,18.32-2.76c23.42-3.28,48.06-5.4,71.9-7.44c12.49-1.07,25.4-2.18,37.87-3.44
			c17.79-1.79,36.61-4.79,54.81-7.7c5.47-0.87,10.86-1.73,16.12-2.54c26.74-4.12,46.71-8.97,66.77-16.19
			c30.97-11.16,27.01-22.87,25.52-27.29c-4.25-12.58-41.6-32.63-76.89-32.63c-0.2,0-0.4,0-0.6,0v0.06c-11.6,0-23.2,0-34.81,0.01
			c-21.47,0.01-42.94,0.02-64.4,0c-7.9-0.01-15.96-0.07-23.75-0.13C686.54,296.43,678.01,296.36,669.47,296.36z"/>
	</g>
</g>
</svg>
