<?xml version="1.0" encoding="utf-8"?>
<!-- Generator: Adobe Illustrator 27.9.0, SVG Export Plug-In . SVG Version: 6.00 Build 0)  -->
<svg version="1.1" id="Camada_1" xmlns="http://www.w3.org/2000/svg" xmlns:xlink="http://www.w3.org/1999/xlink" x="0px" y="0px"
	 viewBox="0 0 1339.4 605" style="enable-background:new 0 0 1339.4 605;" xml:space="preserve">
<style type="text/css">
	.st0{fill:#1D1D1B;}
</style>
<g>
	<g>
		<path class="st0" d="M731.3,605c-10.6,0-21.3-0.9-31.4-2.8c-17.4-3.2-72.6-25.3-105.9-60.8c-4.7-5-19.6-30.2-22.7-38.4
			c-0.3-0.8-0.8-2-1.3-3.6c-17.7,21.9-39.5,37.6-70.1,50.6c-14.3,6.1-58.4,20-65.9,22.2c-18.8,5.5-40.2,11.8-65.8,11.8
			c-0.2,0-0.3,0-0.5,0c-35.1-0.1-55.7-9-75.9-22.4c-12.9-8.5-27.1-44.7-26.9-55.4c0.3-14.7,2.1-29.3,3.9-43.5
			c0.9-7.1,1.8-14.4,2.5-21.5c0.4-3.7,2.3-12.2,4.9-21.3c-9.3-0.3-18.4-0.6-27.5-1c-13.6-0.5-27.8-1-41.8-1.4
			c-9.7-0.2-45.6-3-54.1-4.1l-2.6-0.3c-14.8-1.9-26.5-3.3-40.7-7.2c-3-0.8-73.6-20.4-90.8-39.6c-7-7.8-20-22.4-18.5-61
			c0.4-10.1,8.6-19.5,23.2-26.5c13.7-6.6,36.7-10.5,55.1-13.6c2.3-0.4,4.5-0.8,6.6-1.1c18.4-3.2,35.3-5.6,51.2-7.3
			c-9.5-7.1-50.4-39.7-56.6-49.2c-3-4.6-7.7-18.6-3.3-32.9c2.6-8.3,9.3-19.8,26.8-27c18-7.5,34.2-11.2,49.5-11.4
			c9.2-0.1,18.6,0.2,28.9,1c7.5,0.6,29.4,2.8,49.5,5.3c-3.1-12.4-4.1-24.7-2.8-36.1c2.2-20.3,12.4-47.5,48.8-62
			c22.4-8.9,49-10.5,81.5-4.8c21.1,3.7,34.3,9.8,49.6,16.7l0.7,0.3c20,9.2,39.4,18.6,55.7,32.7l0.1,0.1c4.9,4.5,56.7,57.8,66.6,70.4
			c6.7,8.5,15.5,26.2,16.7,36.2l-11.4,1.4c-0.8-6.9-8.3-22.8-14.3-30.4c-9.1-11.6-59.8-64-65.3-69c-13.8-12-29.2-20.1-52.9-30.9
			l-0.7-0.3c-15.2-6.9-27.1-12.4-46.8-15.9c-30.3-5.3-54.9-4-75.2,4.1c-24.6,9.8-39,28-41.6,52.6c-1.3,12.1,0.2,24.5,3.7,36.5
			c9.9,1.4,18.3,2.9,22.7,4.2l2.6,0.8c12.4,3.6,49.9,14.8,63.3,20.7c1.7,0.7,3.6,1.6,5.6,2.5c9.7,4.3,23.1,10.2,30.5,14.1
			c0.9,0.5,2.3,1.2,3.9,2c42.3,21.6,57.7,33.5,56.6,43.7c-1.3,12.4-17.2,18.2-48.7,17.9c-47.4-0.5-85.1-22.7-99.1-32.2
			c-15.4-10.4-29.9-27.9-39.7-47.9c-2.5-5.1-4.7-10.2-6.5-15.4c-20.2-2.7-44.7-5.2-54-5.9c-9.9-0.8-19-1.1-27.8-1
			c-14,0.2-28.4,3.5-45.2,10.5c-10.8,4.5-17.6,11.1-20.2,19.8c-3.2,10.4,0.4,20.8,2,23.2c4.5,6.9,41,36.8,53.9,46.4
			c2.6,2,7.4,4.5,13.5,7.3c2.8-0.2,5.6-0.4,8.3-0.6c10-0.6,17.9,0,26.3,0.7c2.8,0.2,5.7,0.5,8.8,0.7c35.4,2.3,71.1,6.8,109.2,14
			c27.7,5.2,60.8,17,63,33.1c0.5,3.5-0.1,10.1-9.8,14.9c-26.8,13.3-58,2.3-80.8-5.7c-5.8-2-10.8-3.8-15-4.9
			c-14.8-3.9-78.2-25.3-111.9-40.4c-20.5,1.6-42.8,4.6-67.7,8.9c-2.1,0.4-4.4,0.7-6.7,1.1c-17.7,3-39.8,6.7-52.1,12.6
			c-10.2,4.9-16.5,11.1-16.7,16.6c-1.4,34,9.2,45.8,15.5,52.9c11.1,12.4,58.2,28.8,85.4,36.2c13.5,3.7,24.2,5,39.1,6.9l2.6,0.3
			c8.3,1,43.6,3.8,53,4c14.1,0.3,28.2,0.9,41.9,1.4c10,0.4,20.2,0.8,30.5,1.1c2.5-7.8,5.2-14.8,7.3-18.3c0.7-1.1,1.3-2.2,2-3.3
			c5.3-8.9,11.4-19.1,26.7-26.2c17.6-8.2,50.5-12.3,62.9-13.9l0.4,0c17.5-2.2,41.1-1.6,54.8,13.4c3.9,4.2,5.2,9.3,4,14.5
			c-4.4,17.7-38.9,30.9-45.7,33.4c-22.7,8.2-50,12.8-74.9,12.7c-9.7,0-19.4-0.2-29-0.5c-2.7,9.2-4.9,18.3-5.3,22.1
			c-0.7,7.3-1.6,14.7-2.5,21.8c-1.7,13.9-3.5,28.2-3.8,42.3c-0.2,8.3,13.2,40,21.7,45.6c18.4,12.2,37.3,20.4,69.5,20.5
			c0.1,0,0.3,0,0.5,0c24,0,43.6-5.8,62.6-11.3c7.1-2.1,51-16,64.7-21.7c30.2-12.8,51.1-28.3,68-50.3c0.5-0.6,1.2-1.5,2-2.8
			c-8.1-23.8-21.1-64.8-20.9-80.7c0-0.8,0-1.7,0-2.7c-0.1-12.5-0.2-45.9,33.2-46.8c22.5-0.6,31.8,12.6,37.4,20.5l0.8,1.1
			c9.3,13,11,23.2,6.2,37.8c-4.3,13.2-31.6,54.6-44,72.6c1.6,4.6,3,8.3,3.9,10.7c2.7,7.2,16.9,30.9,20.4,34.6
			c31,33,83.8,54.4,99.6,57.3c36.5,6.8,78.6-0.1,93.8-15.4c9.4-9.4,18-19.9,25.5-31.1c6.8-10.2,22.9-42.6,29.1-77.8
			c1.4-7.8,2.2-15.2,2.5-22.2c-14.8-7.4-29.6-15.5-34-19c-2.5-1.7-7.3-4.8-12.8-8.4c-16.6-10.9-39.3-25.8-46.5-31.5
			c-1.2-1-2.6-2-4-3.1c-9.4-7.2-20.1-15.4-19.3-25c0.2-3.2,1.9-7.7,8.4-11.1c28.9-15.6,74,6.7,84.2,14.4
			c23.1,17.5,35.2,43.7,35.6,76.7c9.4,4.6,18.2,8.6,23.3,10.4c11.9,4.2,25.5,10.4,29.3,12.2c23.7,11.1,101.8,46.2,120.3,52
			c13.7,4.3,28.2,6.6,43.6,9.1c5.9,1,12.1,1.9,18.2,3l4.9,0.9c15.4,2.8,31.3,5.8,48.2,5.9c20.2,0.2,29.5,0,39.5-7.4
			c13.2-9.7,14.4-28,11.2-37.9c-5.9-17.8-21.4-35.5-35-51.2c-1.7-2-3.4-3.9-5-5.8c-10.1-11.7-45.1-47.2-66.5-67.2
			c-8-0.3-15.9-0.6-23.9-1c-3.1-0.2-6.3-0.3-9.5-0.5c-38.9-2-83-4.2-114.2-16.8c-4.1-1.6-8.5-3.2-13.2-5c-8.6-3.1-17.5-6.3-24.5-9.9
			c-9.6-4.8-14.3-10.5-15.4-18.3c-0.5-3.8,0.8-7.4,3.7-10.3c10.3-10.2,41.3-9.8,48.3-8.8c11.3,1.7,18.9,3.5,26.9,5.5
			c3.7,0.9,7.4,1.9,11.8,2.8c50,11.2,92.8,32.7,103.7,41.1c2.7,2.1,6.5,5.4,11.1,9.7c22.5,0.7,45.2,0.9,67.3,1.1l9,0.1
			c16.6,0.2,102.2-12.8,124.9-25.9c22.7-13,25.1-28.9,25.6-44c0.3-8.7-1.2-15.2-4.5-18.8l-0.3-0.4c-7.8-10.5-47-41.2-60.9-49.5
			c-17.3-9.7-44.1-17.1-62.8-21.8c-14.8-3.7-31.7-5.8-47.9-7.7c-6.2-0.8-12.6-1.5-18.8-2.4c-11.9-1.6-24.2-2.8-36.4-3.6
			c-4,2.1-8,4.2-11.8,6.2c-23,12.1-46.7,24.7-79.6,32.1c-17.2,3.9-48,3-59.2-7.2c-3.8-3.5-5.7-8.3-5.3-13.6
			c0.5-6.5,4.2-12.7,10.1-16.7c21.6-14.7,62.6-15.5,103.6-14.3c12.5,0.4,26.1,0.9,39.9,1.8c2.1-1.1,4.3-2.2,6.5-3.2
			c28.4-14,50.1-34.8,62.7-60.1c7.5-15.1,3.3-27.9-6.4-44.8c-6.4-11.2-14.9-19.8-28.4-28.4c-14.3-9.2-25.1-13.7-51.8-16.1
			c-11.7-1.1-27-2.1-41-0.4c-18.8,2.2-38.1,7.6-55.9,15.7c-37.2,16.8-126.6,83.7-136,93.7c-1.4,1.5-2.9,3-4.3,4.5
			c-11.8,12.4-22.9,24-30.1,36.5c-6.3,10.9-16.9,33.2-17,33.5l-10.4-4.9c0.4-0.9,10.9-23,17.5-34.3c7.9-13.7,20-26.4,31.8-38.7
			c1.4-1.5,2.8-3,4.3-4.5c10.7-11.3,101.2-78.8,139.6-96.2C993.6,9,1014.1,3.3,1034,1c15.1-1.8,31.1-0.7,43.4,0.4
			c26.1,2.3,39.4,6.5,57,17.9c14.9,9.6,24.8,19.6,32.1,32.4c8.9,15.6,17.5,34,6.8,55.7c-12.2,24.6-32.1,45.1-57.9,60
			c6.3,0.6,12.6,1.3,18.8,2.2c6.1,0.8,12.4,1.6,18.6,2.4c16.7,2,33.9,4.1,49.4,8c30.7,7.8,51.6,15.1,65.6,23l0.1,0.1
			c13.7,8.1,54.5,39.6,64.2,52.3c5.2,5.9,7.7,14.9,7.3,26.7c-0.7,18.8-4.9,38.3-31.4,53.5c-25.3,14.5-112.5,27.6-130.8,27.4
			l-8.9-0.1c-18-0.2-36.3-0.3-54.6-0.8c21.4,20.6,48.9,48.7,58,59.2c1.6,1.9,3.3,3.8,5,5.7c14.3,16.5,30.6,35.1,37.2,55.1
			c5.1,15.3,1.5,38.3-15.2,50.7c-13.5,10-26.6,9.8-46.4,9.6c-17.8-0.2-34.2-3.2-50.1-6.1l-4.9-0.9c-6-1.1-12.1-2.1-18-3
			c-15.8-2.5-30.8-4.9-45.2-9.5c-19.9-6.3-100.1-42.5-121.7-52.6c-3.8-1.8-16.9-7.8-28.3-11.8c-4.5-1.6-11.7-4.8-19.8-8.7
			c-0.4,6-1.2,12.3-2.3,18.8c-7,40-25.1,73.6-30.9,82.2c-7.9,11.8-17,22.9-27,32.8c-9.1,9.1-25.2,15.9-45.2,19.2
			C749.8,604.3,740.6,605,731.3,605z M579.2,367.7c-0.4,0-0.8,0-1.2,0c-9.8,0.3-15.8,4.2-19.1,12.4c-3,7.5-3,16.8-2.9,22.9
			c0,1.1,0,2.1,0,2.9c-0.2,12.2,9.6,44.8,17.5,68.7c13.3-19.8,34.5-52.7,37.7-62.5c3.6-11,2.5-17.5-4.7-27.5l-0.8-1.1
			C600.8,376.4,594.7,367.7,579.2,367.7z M768.5,352.2c-6.6,0-13,1.2-18.4,4.1c-1.9,1-2.4,1.8-2.4,1.9c-0.3,3.4,10.7,11.8,14.9,15
			c1.5,1.2,3,2.3,4.2,3.3c6.7,5.4,30.1,20.7,45.5,30.9c5.9,3.9,10.6,6.9,13.1,8.7l0.4,0.3c2.9,2.4,14.3,8.7,26.9,15.1
			c-1.6-26.7-11.9-47.4-30.9-61.8C815.6,364.9,790.4,352.2,768.5,352.2z M291.5,408.7c8.5,0.2,17,0.3,25.5,0.4
			c23.6,0.1,49.5-4.3,71-12c20.1-7.2,36.7-18.1,38.5-25.3c0.3-1,0.3-2.3-1.3-4c-10.4-11.4-30.1-11.5-44.9-9.7l-0.4,0
			c-10.8,1.3-43.5,5.4-59.5,12.9c-12.1,5.7-16.5,13.1-21.7,21.7c-0.7,1.1-1.4,2.3-2.1,3.4C295.2,398.4,293.4,403.1,291.5,408.7z
			 M938.3,302c-4.4,0-9.9,0.3-15.2,1c-12.3,1.7-15.7,4.7-16,5.5c0.4,2.9,1.8,5.9,9.2,9.7c6.5,3.3,15,6.4,23.3,9.4
			c4.6,1.7,9.3,3.4,13.6,5.1c29.4,11.8,72.5,14,110.5,16c3.2,0.2,6.4,0.3,9.5,0.5c3.2,0.2,6.4,0.3,9.7,0.5
			c-10.3-8-50.9-28.1-99-38.9c-4.5-1-8.3-2-12.1-2.9c-8-2-15-3.7-25.7-5.3C944.4,302.1,941.7,302,938.3,302z M183,265.9
			c32.3,12.6,73.5,26.5,86.6,30c4.6,1.2,10.1,3.1,15.9,5.2c20.8,7.4,49.4,17.4,71.8,6.3c2.5-1.3,3.6-2.5,3.5-3.1
			c-0.7-4.8-17.1-16.5-53.8-23.3c-37.6-7-72.8-11.5-107.8-13.8c-3.2-0.2-6.2-0.4-9-0.7C187.8,266.2,185.4,266,183,265.9z
			 M247.5,156.4c9.1,22.2,24.3,41.5,39.7,52c10.3,7,47.3,29.7,92.8,30.2c28.7,0.3,36.4-5,37.1-7.3c-0.4-1-3.1-5.6-19.8-15.8
			c-11-6.8-23.8-13.3-30.6-16.8c-1.7-0.9-3.1-1.6-4-2.1c-7.1-3.7-20.2-9.5-29.8-13.8c-2.1-0.9-4-1.8-5.7-2.5
			c-8.4-3.8-29.3-10.6-61.9-20.2l-2.7-0.8C259.7,158.5,254.3,157.5,247.5,156.4z M1029.8,174.8c-25.4,0-57.3,2-73.1,12.8
			c-2.9,2-4.9,5.1-5.1,8c-0.1,1.8,0.4,3.2,1.6,4.3c7.2,6.6,33.4,8,48.9,4.4c29.1-6.6,50.2-17.1,71.6-28.4c-7-0.3-13.8-0.5-20.3-0.7
			C1047.2,175.1,1038.9,174.8,1029.8,174.8z"/>
	</g>
	<g>
		<path class="st0" d="M498.4,333.2c-25.9,0-52.1-0.6-76.1-6.5c-25.4-6.2-34.7-14.7-34.4-31.4c0.3-14.6,5.9-25.7,17.2-34.1
			c27.7-20.4,89.1-36.6,107.3-41.1c40.9-10.1,77.7-15.5,112.6-16.5c18.9-0.6,38.2-0.4,56.8-0.3c7.8,0.1,15.8,0.1,23.7,0.1
			c21.5,0,42.9,0,64.4,0c11.1,0,22.2,0,33.3,0v0c18.1-0.4,38.8,4.1,56.8,12.4c17.8,8.2,29.9,18.4,33.1,28c3,9,1.5,17.5-4.4,24.7
			c-5.5,6.7-14.7,12.3-28.1,17.1c-20.5,7.4-41.8,12.5-68.9,16.7c-5.2,0.8-10.6,1.7-16.1,2.5c-18.4,2.9-37.3,6-55.5,7.8
			c-12.6,1.3-25.5,2.4-38,3.5c-23.7,2-48.2,4.1-71.3,7.4c-6.5,0.9-12.4,1.8-18.1,2.7c-13.7,2.1-26.7,4.2-43.3,5.3
			c-13.9,0.9-26.1,1.6-40.8,1.6C505.3,333.2,501.9,333.2,498.4,333.2z M656.4,214.7c-10.3,0-20.7,0.1-30.9,0.4
			c-34.1,1-70.1,6.3-110.2,16.2c-69.8,17.2-96.6,34.3-103.2,39.2c-8.5,6.2-12.3,14-12.5,25c-0.1,8.3,1.5,14.1,25.6,20
			c25.7,6.3,55.1,6.2,83.5,6.1c14.3,0,26.4-0.7,40-1.6c16.1-1.1,28.9-3.1,42.3-5.2c5.8-0.9,11.8-1.8,18.3-2.8
			c23.4-3.3,48.1-5.4,71.9-7.4c12.5-1.1,25.4-2.2,37.9-3.4c17.8-1.8,36.6-4.8,54.8-7.7c5.5-0.9,10.9-1.7,16.1-2.5
			c26.7-4.1,46.7-9,66.8-16.2c31-11.2,27-22.9,25.5-27.3c-4.2-12.6-41.6-32.6-76.9-32.6c-0.2,0-0.4,0-0.6,0v0.1
			c-11.6,0-23.2,0-34.8,0c-21.5,0-42.9,0-64.4,0c-7.9,0-16-0.1-23.8-0.1C673.5,214.8,664.9,214.7,656.4,214.7z"/>
	</g>
</g>
</svg>
